<svg width="100" height="100" viewBox="0 0 100 100" fill="none" xmlns="http://www.w3.org/2000/svg">
    <!-- Simple abstract brain/heart shape -->
    <defs>
        <linearGradient id="grad1" x1="0%" y1="0%" x2="100%" y2="100%">
            <stop offset="0%" style="stop-color:hsl(var(--primary));stop-opacity:1" />
            <stop offset="100%" style="stop-color:hsl(var(--accent));stop-opacity:1" />
        </linearGradient>
    </defs>
    <path d="M50 15 C 30 15, 15 30, 15 50 C 15 70, 30 85, 50 85 C 70 85, 85 70, 85 50 C 85 30, 70 15, 50 15 Z M 50 25 C 65 25, 75 35, 75 50 C 75 65, 65 75, 50 75 C 35 75, 25 65, 25 50 C 25 35, 35 25, 50 25 Z" fill="url(#grad1)" opacity="0.3"/>
    <path d="M50 28 C 40 20, 30 30, 30 40 C 30 55, 45 60, 50 72 C 55 60, 70 55, 70 40 C 70 30, 60 20, 50 28 Z" fill="hsl(var(--primary))"/>
    <path d="M50 45 C 55 48, 60 48, 60 55 C 60 60, 55 65, 50 65 C 45 65, 40 60, 40 55 C 40 48, 45 48, 50 45 Z" fill="hsl(var(--accent))"/>
</svg>
